<?xml version="1.0" encoding="utf-8"?>
<!-- Generator: Adobe Illustrator 15.1.0, SVG Export Plug-In . SVG Version: 6.00 Build 0)  -->
<!DOCTYPE svg PUBLIC "-//W3C//DTD SVG 1.1//EN" "http://www.w3.org/Graphics/SVG/1.1/DTD/svg11.dtd">
<svg version="1.1" id="Layer_1" xmlns="http://www.w3.org/2000/svg" xmlns:xlink="http://www.w3.org/1999/xlink" x="0px" y="0px"
	 width="1024px" height="768px" viewBox="0 0 1024 768" enable-background="new 0 0 1024 768" xml:space="preserve">
<rect x="512.522" y="-11.692" fill="#FFFFFF" width="529.042" height="799.263"/>
<rect y="-1.739" width="511.478" height="775.654"/>
<g>
	<path d="M603.052,470.164c9.359,0,17.125-1.756,23.299-5.264c6.172-3.51,11.08-8.123,14.721-13.844
		c3.637-5.717,6.205-12.215,7.701-19.496c1.492-7.277,2.242-14.623,2.242-22.031v-69.602h9.943v69.602
		c0,9.23-1.01,18.068-3.023,26.516c-2.016,8.451-5.297,15.889-9.846,22.322c-4.551,6.436-10.496,11.539-17.838,15.307
		c-7.346,3.771-16.348,5.654-27.004,5.654c-10.918,0-20.08-1.98-27.49-5.947c-7.408-3.963-13.354-9.229-17.838-15.793
		c-4.484-6.561-7.672-14.004-9.555-22.322c-1.885-8.316-2.826-16.895-2.826-25.736v-69.602h9.943v69.602
		c0,7.672,0.746,15.145,2.242,22.422c1.492,7.279,4.061,13.744,7.701,19.398c3.637,5.654,8.512,10.205,14.621,13.646
		C586.155,468.441,593.823,470.164,603.052,470.164z"/>
</g>
<g>
	<path fill="#FFFFFF" d="M426.273,468.963c9.358,0,17.124-1.754,23.299-5.264c6.172-3.51,11.079-8.121,14.72-13.842
		c3.638-5.719,6.205-12.217,7.701-19.496c1.493-7.279,2.242-14.623,2.242-22.031v-69.603h9.943v69.603
		c0,9.23-1.009,18.066-3.022,26.514c-2.017,8.451-5.297,15.891-9.846,22.324c-4.551,6.434-10.497,11.537-17.839,15.307
		c-7.345,3.77-16.347,5.652-27.003,5.652c-10.918,0-20.081-1.979-27.49-5.945c-7.409-3.965-13.355-9.229-17.839-15.793
		c-4.484-6.563-7.671-14.004-9.553-22.324c-1.886-8.316-2.827-16.895-2.827-25.734v-69.603h9.943v69.603
		c0,7.67,0.746,15.143,2.242,22.42c1.493,7.281,4.061,13.746,7.701,19.4c3.638,5.652,8.512,10.203,14.623,13.646
		C409.376,467.242,417.044,468.963,426.273,468.963z"/>
</g>
<g>
	<path fill="#FFFFFF" d="M226.033,313.979c3.639,2.534,8.22,3.802,13.745,3.802c3.963,0,7.116-0.714,9.456-2.145
		c2.339-1.429,4.126-3.51,5.361-6.239c1.234-2.729,2.03-6.076,2.389-10.041c0.356-3.963,0.536-8.447,0.536-13.453V250.81h3.314
		v35.094c0,5.264-0.228,10.058-0.682,14.379c-0.456,4.323-1.414,8.01-2.876,11.064c-1.462,3.056-3.575,5.427-6.336,7.116
		c-2.763,1.689-6.483,2.535-11.162,2.535c-5.849,0-10.854-1.429-15.012-4.289L226.033,313.979z"/>
	<path fill="#FFFFFF" d="M306.553,317.196c4.938,0,9.049-0.926,12.332-2.778c3.281-1.852,5.864-4.272,7.75-7.262
		c1.884-2.989,3.217-6.385,3.997-10.187s1.17-7.652,1.17-11.552v-34.704h3.412v34.704c0,4.615-0.487,9.034-1.462,13.258
		c-0.975,4.225-2.583,7.945-4.826,11.162c-2.242,3.217-5.183,5.785-8.822,7.701c-3.641,1.917-8.125,2.875-13.453,2.875
		c-5.459,0-10.025-1.007-13.696-3.022c-3.672-2.014-6.614-4.662-8.822-7.945c-2.21-3.281-3.77-7.019-4.679-11.21
		c-0.911-4.192-1.365-8.464-1.365-12.819v-34.704h3.314v34.704c0,4.03,0.39,7.945,1.17,11.747s2.145,7.182,4.094,10.138
		c1.95,2.958,4.533,5.346,7.75,7.165C297.633,316.287,301.679,317.196,306.553,317.196z"/>
	<path fill="#FFFFFF" d="M353.148,319.925v-69.212h3.314v66.093h42.502v3.12H353.148z"/>
	<path fill="#FFFFFF" d="M410.759,319.925V250.81h3.314v69.115H410.759z"/>
	<path fill="#FFFFFF" d="M425.674,319.925l29.83-69.212h2.827l29.829,69.212h-3.704l-10.235-23.883h-34.704l-10.235,23.883H425.674z
		 M456.966,255.002l-16.475,38.116h32.657L456.966,255.002z"/>
</g>
<g>
	<path d="M550.048,546.502v-49.988h16.264c3.941,0,7.393,0.658,10.35,1.973s5.408,3.098,7.355,5.35
		c1.947,2.254,3.416,4.895,4.4,7.922c0.986,3.027,1.479,6.254,1.479,9.68c0,3.803-0.551,7.24-1.654,10.314s-2.676,5.703-4.717,7.885
		c-2.041,2.184-4.518,3.873-7.428,5.07c-2.91,1.195-6.172,1.795-9.785,1.795H550.048z M587.503,521.438
		c0-3.285-0.471-6.313-1.408-9.082c-0.939-2.77-2.301-5.162-4.084-7.182c-1.783-2.018-4.002-3.59-6.652-4.717
		c-2.652-1.127-5.668-1.689-9.047-1.689H552.44v45.48h13.871c3.473,0,6.535-0.574,9.188-1.725c2.65-1.148,4.869-2.746,6.652-4.787
		s3.121-4.459,4.014-7.252C587.056,527.693,587.503,524.676,587.503,521.438z"/>
	<path d="M633.616,544.248v2.254h-33.02v-49.988h32.385v2.254h-29.992v21.051h26.262v2.252h-26.262v22.178H633.616z"/>
	<path d="M672.198,503.906c-1.785-2.018-3.779-3.438-5.984-4.258c-2.207-0.822-4.787-1.232-7.744-1.232
		c-5.352,0-9.225,1.01-11.617,3.027c-2.395,2.018-3.592,4.717-3.592,8.096c0,1.689,0.293,3.109,0.881,4.26
		c0.586,1.15,1.502,2.125,2.746,2.922c1.242,0.799,2.826,1.467,4.752,2.006c1.924,0.541,4.225,1.092,6.9,1.654
		c2.721,0.564,5.186,1.174,7.393,1.832c2.205,0.656,4.082,1.49,5.631,2.498c1.549,1.01,2.746,2.266,3.592,3.768
		c0.844,1.502,1.268,3.355,1.268,5.561c0,2.113-0.424,3.967-1.268,5.563c-0.846,1.596-2.043,2.934-3.592,4.014
		s-3.414,1.889-5.596,2.428c-2.184,0.539-4.613,0.811-7.287,0.811c-3.99,0-7.582-0.621-10.771-1.865
		c-3.193-1.244-6.127-3.156-8.801-5.738l1.408-1.76c2.346,2.393,5.021,4.201,8.025,5.42c3.004,1.223,6.406,1.832,10.209,1.832
		c4.691,0,8.389-0.857,11.088-2.57s4.049-4.33,4.049-7.85c0-1.783-0.33-3.297-0.986-4.541c-0.658-1.244-1.654-2.301-2.992-3.168
		c-1.338-0.869-3.016-1.621-5.033-2.254c-2.02-0.633-4.412-1.232-7.182-1.795c-2.723-0.564-5.139-1.15-7.252-1.76
		c-2.111-0.609-3.885-1.385-5.314-2.324c-1.434-0.938-2.512-2.088-3.238-3.449c-0.729-1.361-1.092-3.074-1.092-5.141
		c0-2.205,0.422-4.164,1.268-5.879c0.844-1.711,2.029-3.143,3.555-4.293s3.367-2.031,5.527-2.641
		c2.158-0.609,4.576-0.916,7.252-0.916c3.238,0,6.064,0.471,8.482,1.408c2.418,0.939,4.635,2.441,6.654,4.506L672.198,503.906z"/>
	<path d="M686.138,546.502v-49.916h2.393v49.916H686.138z"/>
	<path d="M739.925,538.334c-4.975,5.68-10.771,8.52-17.389,8.52c-3.428,0-6.584-0.74-9.471-2.217
		c-2.885-1.479-5.361-3.416-7.426-5.809c-2.066-2.395-3.686-5.105-4.859-8.133s-1.76-6.09-1.76-9.188
		c0-3.285,0.564-6.453,1.689-9.504c1.127-3.051,2.699-5.75,4.717-8.098c2.018-2.346,4.424-4.223,7.217-5.631
		s5.855-2.113,9.188-2.113c2.535,0,4.811,0.271,6.83,0.811c2.018,0.539,3.801,1.291,5.35,2.252c1.549,0.963,2.887,2.113,4.014,3.451
		c1.127,1.336,2.088,2.805,2.887,4.4l-2.041,1.055c-1.832-3.426-4.201-5.889-7.111-7.393c-2.91-1.502-6.221-2.252-9.928-2.252
		c-3.145,0-5.984,0.668-8.518,2.006c-2.535,1.338-4.682,3.088-6.443,5.246c-1.76,2.158-3.109,4.611-4.047,7.357
		c-0.939,2.744-1.408,5.551-1.408,8.412c0,3.053,0.551,5.961,1.654,8.73c1.102,2.77,2.605,5.209,4.506,7.322
		c1.9,2.111,4.141,3.801,6.723,5.068s5.352,1.9,8.309,1.9c3.191,0,6.207-0.727,9.047-2.182s5.598-3.754,8.271-6.9v-10.842H728.38
		v-2.111h13.799v24.008h-2.254V538.334z"/>
	<path d="M755.978,501.162v45.34h-2.395v-49.988h1.832l36.75,46.115v-46.043h2.395v49.916h-2.395L755.978,501.162z"/>
</g>
<g>
	<path fill="#FFFFFF" d="M241.048,338.728l48.351,62.974l48.352-62.974h11.308l-54.2,70.187l52.64,68.238h-11.308l-46.792-61.023
		l-46.792,61.023h-11.503l52.641-68.238l-54.2-70.187H241.048z"/>
</g>
<g>
	<path d="M692.271,340.306l48.35,62.973l48.352-62.973h11.309l-54.201,70.188l52.641,68.236h-11.307l-46.793-61.023l-46.791,61.023
		h-11.502l52.641-68.236l-54.201-70.188H692.271z"/>
</g>
</svg>
